<?xml version="1.0" encoding="UTF-8" standalone="no"?>
<!DOCTYPE svg PUBLIC "-//W3C//DTD SVG 1.1//EN"
 "http://www.w3.org/Graphics/SVG/1.1/DTD/svg11.dtd">
<!-- Generated by graphviz version 2.38.0 (20140413.2041)
 -->
<!-- Title: dockerComposeGraph Pages: 1 -->
<svg width="947pt" height="650pt"
 viewBox="0.00 0.00 946.59 650.18" xmlns="http://www.w3.org/2000/svg" xmlns:xlink="http://www.w3.org/1999/xlink">
<g id="graph0" class="graph" transform="scale(1 1) rotate(0) translate(4 646.182)">
<title>dockerComposeGraph</title>
<polygon fill="white" stroke="none" points="-4,4 -4,-646.182 942.593,-646.182 942.593,4 -4,4"/>
<g id="clust1" class="cluster"><title>cluster_hostports</title>
<path fill="moccasin" stroke="black" d="M20,-8C20,-8 92.5928,-8 92.5928,-8 98.5928,-8 104.593,-14 104.593,-20 104.593,-20 104.593,-389 104.593,-389 104.593,-395 98.5928,-401 92.5928,-401 92.5928,-401 20,-401 20,-401 14,-401 8,-395 8,-389 8,-389 8,-20 8,-20 8,-14 14,-8 20,-8"/>
</g>
<g id="clust2" class="cluster"><title>cluster_hostvolumes</title>
<path fill="moccasin" stroke="black" d="M807.593,-329C807.593,-329 918.593,-329 918.593,-329 924.593,-329 930.593,-335 930.593,-341 930.593,-341 930.593,-601 930.593,-601 930.593,-607 924.593,-613 918.593,-613 918.593,-613 807.593,-613 807.593,-613 801.593,-613 795.593,-607 795.593,-601 795.593,-601 795.593,-341 795.593,-341 795.593,-335 801.593,-329 807.593,-329"/>
</g>
<g id="clust3" class="cluster"><title>cluster_composeContainers</title>
<path fill="lightyellow" stroke="black" d="M215.593,-221C215.593,-221 720.593,-221 720.593,-221 726.593,-221 732.593,-227 732.593,-233 732.593,-233 732.593,-569 732.593,-569 732.593,-575 726.593,-581 720.593,-581 720.593,-581 215.593,-581 215.593,-581 209.593,-581 203.593,-575 203.593,-569 203.593,-569 203.593,-233 203.593,-233 203.593,-227 209.593,-221 215.593,-221"/>
</g>
<g id="clust4" class="cluster"><title>cluster_mongo3</title>
<path fill="white" stroke="black" d="M639.593,-229C639.593,-229 712.593,-229 712.593,-229 718.593,-229 724.593,-235 724.593,-241 724.593,-241 724.593,-327 724.593,-327 724.593,-333 718.593,-339 712.593,-339 712.593,-339 639.593,-339 639.593,-339 633.593,-339 627.593,-333 627.593,-327 627.593,-327 627.593,-241 627.593,-241 627.593,-235 633.593,-229 639.593,-229"/>
</g>
<g id="clust7" class="cluster"><title>cluster_mongo2</title>
<path fill="white" stroke="black" d="M639.593,-347C639.593,-347 712.593,-347 712.593,-347 718.593,-347 724.593,-353 724.593,-359 724.593,-359 724.593,-445 724.593,-445 724.593,-451 718.593,-457 712.593,-457 712.593,-457 639.593,-457 639.593,-457 633.593,-457 627.593,-451 627.593,-445 627.593,-445 627.593,-359 627.593,-359 627.593,-353 633.593,-347 639.593,-347"/>
</g>
<g id="clust10" class="cluster"><title>cluster_mongo1</title>
<path fill="white" stroke="black" d="M471.593,-235C471.593,-235 544.593,-235 544.593,-235 550.593,-235 556.593,-241 556.593,-247 556.593,-247 556.593,-333 556.593,-333 556.593,-339 550.593,-345 544.593,-345 544.593,-345 471.593,-345 471.593,-345 465.593,-345 459.593,-339 459.593,-333 459.593,-333 459.593,-247 459.593,-247 459.593,-241 465.593,-235 471.593,-235"/>
</g>
<g id="clust13" class="cluster"><title>cluster_orion</title>
<path fill="white" stroke="black" d="M235.593,-405C235.593,-405 319.593,-405 319.593,-405 325.593,-405 331.593,-411 331.593,-417 331.593,-417 331.593,-561 331.593,-561 331.593,-567 325.593,-573 319.593,-573 319.593,-573 235.593,-573 235.593,-573 229.593,-573 223.593,-567 223.593,-561 223.593,-561 223.593,-417 223.593,-417 223.593,-411 229.593,-405 235.593,-405"/>
</g>
<g id="clust16" class="cluster"><title>cluster_mongosetup</title>
<path fill="white" stroke="black" d="M223.593,-229C223.593,-229 331.593,-229 331.593,-229 337.593,-229 343.593,-235 343.593,-241 343.593,-241 343.593,-385 343.593,-385 343.593,-391 337.593,-397 331.593,-397 331.593,-397 223.593,-397 223.593,-397 217.593,-397 211.593,-391 211.593,-385 211.593,-385 211.593,-241 211.593,-241 211.593,-235 217.593,-229 223.593,-229"/>
</g>
<!-- 27019 -->
<g id="node1" class="node"><title>27019</title>
<ellipse fill="none" stroke="black" cx="56.2964" cy="-56" rx="40.0939" ry="40.0939"/>
<text text-anchor="middle" x="56.2964" y="-52.3" font-family="Times,serif" font-size="14.00">27019</text>
</g>
<!-- mongo3 -->
<g id="node10" class="node"><title>mongo3</title>
<text text-anchor="middle" x="676.093" y="-309.3" font-family="Times,serif" font-weight="bold" font-size="14.00">mongo3</text>
</g>
<!-- 27019&#45;&gt;mongo3 -->
<g id="edge1" class="edge"><title>27019&#45;&gt;mongo3</title>
<path fill="none" stroke="black" d="M95.8174,-47.7404C193.285,-29.2994 451.922,3.94092 592.593,-127 642.367,-173.331 591.485,-220.963 622.194,-275.539"/>
<polygon fill="black" stroke="black" points="619.263,-277.453 627.593,-284 625.164,-273.687 619.263,-277.453"/>
<text text-anchor="middle" x="401.593" y="-47.8" font-family="Times,serif" font-size="14.00">27017</text>
</g>
<!-- 27018 -->
<g id="node2" class="node"><title>27018</title>
<ellipse fill="none" stroke="black" cx="56.2964" cy="-159" rx="40.0939" ry="40.0939"/>
<text text-anchor="middle" x="56.2964" y="-155.3" font-family="Times,serif" font-size="14.00">27018</text>
</g>
<!-- mongo2 -->
<g id="node12" class="node"><title>mongo2</title>
<text text-anchor="middle" x="676.093" y="-427.3" font-family="Times,serif" font-weight="bold" font-size="14.00">mongo2</text>
</g>
<!-- 27018&#45;&gt;mongo2 -->
<g id="edge3" class="edge"><title>27018&#45;&gt;mongo2</title>
<path fill="none" stroke="black" d="M96.017,-151.826C188.085,-137.15 422.384,-114.142 556.593,-230 616.505,-281.72 577.565,-334.393 621.2,-393.938"/>
<polygon fill="black" stroke="black" points="618.637,-396.339 627.593,-402 624.122,-391.99 618.637,-396.339"/>
<text text-anchor="middle" x="401.593" y="-164.8" font-family="Times,serif" font-size="14.00">27017</text>
</g>
<!-- 27017 -->
<g id="node3" class="node"><title>27017</title>
<ellipse fill="none" stroke="black" cx="56.2964" cy="-262" rx="40.0939" ry="40.0939"/>
<text text-anchor="middle" x="56.2964" y="-258.3" font-family="Times,serif" font-size="14.00">27017</text>
</g>
<!-- mongo1 -->
<g id="node14" class="node"><title>mongo1</title>
<text text-anchor="middle" x="508.093" y="-257.3" font-family="Times,serif" font-weight="bold" font-size="14.00">mongo1</text>
</g>
<!-- 27017&#45;&gt;mongo1 -->
<g id="edge5" class="edge"><title>27017&#45;&gt;mongo1</title>
<path fill="none" stroke="black" d="M93.0053,-245.092C122.048,-232.323 164.48,-215.866 203.593,-209 264.878,-198.241 282.107,-199.458 343.593,-209 382.938,-215.106 425.772,-229.013 457.725,-240.91"/>
<polygon fill="black" stroke="black" points="449.741,-238.629 459.593,-242.526 454.321,-233.336 449.741,-238.629"/>
<text text-anchor="middle" x="277.593" y="-212.8" font-family="Times,serif" font-size="14.00">27017</text>
</g>
<!-- 1026 -->
<g id="node4" class="node"><title>1026</title>
<ellipse fill="none" stroke="black" cx="56.2964" cy="-359" rx="34.394" ry="34.394"/>
<text text-anchor="middle" x="56.2964" y="-355.3" font-family="Times,serif" font-size="14.00">1026</text>
</g>
<!-- orion -->
<g id="node16" class="node"><title>orion</title>
<text text-anchor="middle" x="277.593" y="-427.3" font-family="Times,serif" font-weight="bold" font-size="14.00">orion</text>
</g>
<!-- 1026&#45;&gt;orion -->
<g id="edge9" class="edge"><title>1026&#45;&gt;orion</title>
<path fill="none" stroke="black" d="M89.184,-369.469C121.88,-380.204 173.581,-397.179 214.406,-410.583"/>
<polygon fill="black" stroke="black" points="213.406,-413.938 223.999,-413.732 215.59,-407.287 213.406,-413.938"/>
<text text-anchor="middle" x="158.093" y="-400.8" font-family="Times,serif" font-size="14.00">1026</text>
</g>
<!-- host_./data3/ -->
<g id="node5" class="node"><title>host_./data3/</title>
<polygon fill="none" stroke="black" points="898.593,-373 839.593,-373 839.593,-377 827.593,-377 827.593,-337 898.593,-337 898.593,-373"/>
<polyline fill="none" stroke="black" points="827.593,-373 839.593,-373 "/>
<text text-anchor="middle" x="863.093" y="-351.3" font-family="Times,serif" font-size="14.00">./data3/</text>
</g>
<!-- host_./data2/ -->
<g id="node6" class="node"><title>host_./data2/</title>
<polygon fill="none" stroke="black" points="898.593,-431 839.593,-431 839.593,-435 827.593,-435 827.593,-395 898.593,-395 898.593,-431"/>
<polyline fill="none" stroke="black" points="827.593,-431 839.593,-431 "/>
<text text-anchor="middle" x="863.093" y="-409.3" font-family="Times,serif" font-size="14.00">./data2/</text>
</g>
<!-- host_./data1/ -->
<g id="node7" class="node"><title>host_./data1/</title>
<polygon fill="none" stroke="black" points="898.593,-489 839.593,-489 839.593,-493 827.593,-493 827.593,-453 898.593,-453 898.593,-489"/>
<polyline fill="none" stroke="black" points="827.593,-489 839.593,-489 "/>
<text text-anchor="middle" x="863.093" y="-467.3" font-family="Times,serif" font-size="14.00">./data1/</text>
</g>
<!-- host_./scripts/ -->
<g id="node8" class="node"><title>host_./scripts/</title>
<polygon fill="none" stroke="black" points="903.093,-605 835.093,-605 835.093,-609 823.093,-609 823.093,-569 903.093,-569 903.093,-605"/>
<polyline fill="none" stroke="black" points="823.093,-605 835.093,-605 "/>
<text text-anchor="middle" x="863.093" y="-583.3" font-family="Times,serif" font-size="14.00">./scripts/</text>
</g>
<!-- host_../../wait&#45;for&#45;it/ -->
<g id="node9" class="node"><title>host_../../wait&#45;for&#45;it/</title>
<polygon fill="none" stroke="black" points="922.593,-547 815.593,-547 815.593,-551 803.593,-551 803.593,-511 922.593,-511 922.593,-547"/>
<polyline fill="none" stroke="black" points="803.593,-547 815.593,-547 "/>
<text text-anchor="middle" x="863.093" y="-525.3" font-family="Times,serif" font-size="14.00">../../wait&#45;for&#45;it/</text>
</g>
<!-- mongo3_/data/db -->
<g id="node11" class="node"><title>mongo3_/data/db</title>
<polygon fill="none" stroke="black" points="713.593,-273 650.593,-273 650.593,-277 638.593,-277 638.593,-237 713.593,-237 713.593,-273"/>
<polyline fill="none" stroke="black" points="638.593,-273 650.593,-273 "/>
<text text-anchor="middle" x="676.093" y="-251.3" font-family="Times,serif" font-size="14.00">/data/db</text>
</g>
<!-- mongo3_/data/db&#45;&gt;host_./data3/ -->
<g id="edge2" class="edge"><title>mongo3_/data/db&#45;&gt;host_./data3/</title>
<path fill="none" stroke="black" d="M712.084,-273.148C718.899,-276.721 725.979,-280.46 732.593,-284 762.087,-299.789 795.156,-317.927 820.495,-331.918"/>
<polygon fill="black" stroke="black" points="819.014,-335.099 829.459,-336.873 822.4,-328.972 819.014,-335.099"/>
</g>
<!-- mongo2_/data/db -->
<g id="node13" class="node"><title>mongo2_/data/db</title>
<polygon fill="none" stroke="black" points="713.593,-391 650.593,-391 650.593,-395 638.593,-395 638.593,-355 713.593,-355 713.593,-391"/>
<polyline fill="none" stroke="black" points="638.593,-391 650.593,-391 "/>
<text text-anchor="middle" x="676.093" y="-369.3" font-family="Times,serif" font-size="14.00">/data/db</text>
</g>
<!-- mongo2_/data/db&#45;&gt;host_./data2/ -->
<g id="edge4" class="edge"><title>mongo2_/data/db&#45;&gt;host_./data2/</title>
<path fill="none" stroke="black" d="M713.643,-380.903C743.479,-387.354 785.754,-396.494 817.565,-403.372"/>
<polygon fill="black" stroke="black" points="816.982,-406.827 827.496,-405.52 818.461,-399.985 816.982,-406.827"/>
</g>
<!-- mongo1&#45;&gt;mongo3 -->
<g id="edge7" class="edge"><title>mongo1&#45;&gt;mongo3</title>
<path fill="none" stroke="black" d="M556.329,-275.797C577.969,-282.576 603.621,-290.611 625.536,-297.476"/>
<polygon fill="black" stroke="black" points="617.112,-297.005 627.593,-298.556 620.367,-290.808 617.112,-297.005"/>
</g>
<!-- mongo1&#45;&gt;mongo2 -->
<g id="edge6" class="edge"><title>mongo1&#45;&gt;mongo2</title>
<path fill="none" stroke="black" d="M556.593,-290C595.991,-328.739 586.984,-356.962 620.332,-394.387"/>
<polygon fill="black" stroke="black" points="618.158,-397.179 627.593,-402 623.224,-392.348 618.158,-397.179"/>
</g>
<!-- mongo1_/data/db -->
<g id="node15" class="node"><title>mongo1_/data/db</title>
<polygon fill="none" stroke="black" points="545.593,-337 482.593,-337 482.593,-341 470.593,-341 470.593,-301 545.593,-301 545.593,-337"/>
<polyline fill="none" stroke="black" points="470.593,-337 482.593,-337 "/>
<text text-anchor="middle" x="508.093" y="-315.3" font-family="Times,serif" font-size="14.00">/data/db</text>
</g>
<!-- mongo1_/data/db&#45;&gt;host_./data1/ -->
<g id="edge8" class="edge"><title>mongo1_/data/db&#45;&gt;host_./data1/</title>
<path fill="none" stroke="black" d="M517.707,-337.206C533.994,-369.246 572.661,-434.881 627.593,-462 687.961,-491.803 768.102,-486.881 817.336,-479.645"/>
<polygon fill="black" stroke="black" points="818.016,-483.082 827.355,-478.078 816.934,-476.166 818.016,-483.082"/>
</g>
<!-- orion&#45;&gt;mongo1 -->
<g id="edge10" class="edge"><title>orion&#45;&gt;mongo1</title>
<path fill="none" stroke="black" d="M331.434,-409.345C335.649,-407.044 339.755,-404.59 343.593,-402 400.091,-363.863 402.758,-336.596 451.68,-296.31"/>
<polygon fill="black" stroke="black" points="453.956,-298.971 459.593,-290 449.592,-293.498 453.956,-298.971"/>
</g>
<!-- orion_/scripts -->
<g id="node17" class="node"><title>orion_/scripts</title>
<polygon fill="none" stroke="black" points="313.093,-507 254.093,-507 254.093,-511 242.093,-511 242.093,-471 313.093,-471 313.093,-507"/>
<polyline fill="none" stroke="black" points="242.093,-507 254.093,-507 "/>
<text text-anchor="middle" x="277.593" y="-485.3" font-family="Times,serif" font-size="14.00">/scripts</text>
</g>
<!-- orion_/scripts&#45;&gt;host_./scripts/ -->
<g id="edge11" class="edge"><title>orion_/scripts&#45;&gt;host_./scripts/</title>
<path fill="none" stroke="black" d="M313.425,-499.243C324.086,-503.682 335.201,-509.792 343.593,-518 369.602,-543.44 347.855,-572.536 378.593,-592 515.279,-678.555 720.193,-631.952 813.135,-603.627"/>
<polygon fill="black" stroke="black" points="814.329,-606.922 822.84,-600.611 812.252,-600.237 814.329,-606.922"/>
</g>
<!-- orion_/wait&#45;for&#45;it -->
<g id="node18" class="node"><title>orion_/wait&#45;for&#45;it</title>
<polygon fill="none" stroke="black" points="323.593,-565 243.593,-565 243.593,-569 231.593,-569 231.593,-529 323.593,-529 323.593,-565"/>
<polyline fill="none" stroke="black" points="231.593,-565 243.593,-565 "/>
<text text-anchor="middle" x="277.593" y="-543.3" font-family="Times,serif" font-size="14.00">/wait&#45;for&#45;it</text>
</g>
<!-- orion_/wait&#45;for&#45;it&#45;&gt;host_../../wait&#45;for&#45;it/ -->
<g id="edge12" class="edge"><title>orion_/wait&#45;for&#45;it&#45;&gt;host_../../wait&#45;for&#45;it/</title>
<path fill="none" stroke="black" d="M291.665,-565.258C308.741,-587.361 340.938,-623.432 378.593,-638 397.66,-645.377 404.301,-640.49 424.593,-638 560.05,-621.38 713.924,-576.842 798.302,-550.121"/>
<polygon fill="black" stroke="black" points="799.526,-553.404 807.992,-547.033 797.401,-546.734 799.526,-553.404"/>
</g>
<!-- mongosetup -->
<g id="node19" class="node"><title>mongosetup</title>
<text text-anchor="middle" x="277.593" y="-251.3" font-family="Times,serif" font-weight="bold" font-size="14.00">mongosetup</text>
</g>
<!-- mongosetup&#45;&gt;mongo3 -->
<g id="edge15" class="edge"><title>mongosetup&#45;&gt;mongo3</title>
<path fill="none" stroke="black" d="M343.593,-284C396.518,-310.783 402.25,-334.829 459.593,-350 515.716,-364.849 581.692,-348.752 625.719,-333.383"/>
<polygon fill="black" stroke="black" points="621.858,-340.831 627.593,-331.923 617.554,-335.311 621.858,-340.831"/>
</g>
<!-- mongosetup&#45;&gt;mongo2 -->
<g id="edge14" class="edge"><title>mongosetup&#45;&gt;mongo2</title>
<path fill="none" stroke="black" d="M343.593,-284C363.345,-299.306 358.434,-313.235 378.593,-328 454.384,-383.514 562.565,-410.97 625.136,-422.982"/>
<polygon fill="black" stroke="black" points="616.998,-423.829 627.593,-423.847 619.322,-417.225 616.998,-423.829"/>
</g>
<!-- mongosetup&#45;&gt;mongo1 -->
<g id="edge13" class="edge"><title>mongosetup&#45;&gt;mongo1</title>
<path fill="none" stroke="black" d="M343.257,-256.698C379.458,-257.649 423.902,-258.816 457.361,-259.694"/>
<polygon fill="black" stroke="black" points="449.246,-262.243 459.593,-259.963 450.083,-255.293 449.246,-262.243"/>
</g>
<!-- mongosetup_/scripts -->
<g id="node20" class="node"><title>mongosetup_/scripts</title>
<polygon fill="none" stroke="black" points="313.093,-389 254.093,-389 254.093,-393 242.093,-393 242.093,-353 313.093,-353 313.093,-389"/>
<polyline fill="none" stroke="black" points="242.093,-389 254.093,-389 "/>
<text text-anchor="middle" x="277.593" y="-367.3" font-family="Times,serif" font-size="14.00">/scripts</text>
</g>
<!-- mongosetup_/scripts&#45;&gt;host_./scripts/ -->
<g id="edge16" class="edge"><title>mongosetup_/scripts&#45;&gt;host_./scripts/</title>
<path fill="none" stroke="black" d="M313.128,-379.726C324.284,-384.121 335.776,-390.59 343.593,-400 386.233,-451.326 327.992,-502.502 378.593,-546 442.646,-601.061 703.025,-595.018 812.853,-589.815"/>
<polygon fill="black" stroke="black" points="813.184,-593.303 823,-589.316 812.84,-586.311 813.184,-593.303"/>
</g>
<!-- mongosetup_/wait&#45;for&#45;it -->
<g id="node21" class="node"><title>mongosetup_/wait&#45;for&#45;it</title>
<polygon fill="none" stroke="black" points="323.593,-331 243.593,-331 243.593,-335 231.593,-335 231.593,-295 323.593,-295 323.593,-331"/>
<polyline fill="none" stroke="black" points="231.593,-331 243.593,-331 "/>
<text text-anchor="middle" x="277.593" y="-309.3" font-family="Times,serif" font-size="14.00">/wait&#45;for&#45;it</text>
</g>
<!-- mongosetup_/wait&#45;for&#45;it&#45;&gt;host_../../wait&#45;for&#45;it/ -->
<g id="edge17" class="edge"><title>mongosetup_/wait&#45;for&#45;it&#45;&gt;host_../../wait&#45;for&#45;it/</title>
<path fill="none" stroke="black" d="M320.029,-331.035C327.894,-334.585 336.027,-338.345 343.593,-342 471.755,-403.914 492.602,-444.875 627.593,-490 681.745,-508.102 745.855,-518.029 793.344,-523.33"/>
<polygon fill="black" stroke="black" points="793.201,-526.835 803.518,-524.423 793.95,-519.875 793.201,-526.835"/>
</g>
</g>
</svg>
